<mxfile host="65bd71144e">
    <diagram id="QEbMA3-fp-p-jWYAKvth" name="Page-1">
        <mxGraphModel dx="1095" dy="539" grid="1" gridSize="10" guides="1" tooltips="1" connect="1" arrows="1" fold="1" page="1" pageScale="1" pageWidth="850" pageHeight="1100" math="0" shadow="0">
            <root>
                <mxCell id="0"/>
                <mxCell id="1" parent="0"/>
                <mxCell id="5" value="&lt;div&gt;create&lt;/div&gt;structure and&lt;div&gt;insert data&lt;/div&gt;" style="edgeStyle=none;html=1;" edge="1" parent="1" source="2" target="3">
                    <mxGeometry relative="1" as="geometry"/>
                </mxCell>
                <mxCell id="2" value="Import csv file" style="rounded=0;whiteSpace=wrap;html=1;" vertex="1" parent="1">
                    <mxGeometry x="80" y="430" width="130" height="40" as="geometry"/>
                </mxCell>
                <mxCell id="3" value="statements" style="shape=cylinder3;whiteSpace=wrap;html=1;boundedLbl=1;backgroundOutline=1;size=15;" vertex="1" parent="1">
                    <mxGeometry x="110" y="160" width="70" height="80" as="geometry"/>
                </mxCell>
                <mxCell id="4" value="places" style="shape=cylinder3;whiteSpace=wrap;html=1;boundedLbl=1;backgroundOutline=1;size=15;" vertex="1" parent="1">
                    <mxGeometry x="370" y="150" width="70" height="80" as="geometry"/>
                </mxCell>
                <mxCell id="6" value="npm run&lt;div&gt;extract:places&lt;/div&gt;" style="rounded=0;whiteSpace=wrap;html=1;" vertex="1" parent="1">
                    <mxGeometry x="340" y="430" width="130" height="40" as="geometry"/>
                </mxCell>
                <mxCell id="7" value="extract places&lt;div&gt;from transactions&lt;/div&gt;" style="edgeStyle=none;html=1;entryX=1;entryY=0.5;entryDx=0;entryDy=0;entryPerimeter=0;exitX=0.5;exitY=0;exitDx=0;exitDy=0;startArrow=classic;startFill=1;" edge="1" parent="1" source="6" target="3">
                    <mxGeometry relative="1" as="geometry"/>
                </mxCell>
                <mxCell id="8" value="normalize and&amp;nbsp;&lt;div&gt;insert places&lt;/div&gt;" style="edgeStyle=none;html=1;entryX=0.5;entryY=1;entryDx=0;entryDy=0;entryPerimeter=0;" edge="1" parent="1" source="6" target="4">
                    <mxGeometry relative="1" as="geometry"/>
                </mxCell>
                <mxCell id="10" value="npm run&lt;div&gt;export:labeled-places&lt;/div&gt;" style="rounded=0;whiteSpace=wrap;html=1;" vertex="1" parent="1">
                    <mxGeometry x="610" y="430" width="130" height="40" as="geometry"/>
                </mxCell>
                <mxCell id="11" value="read labeled&amp;nbsp;&lt;div&gt;places&lt;/div&gt;" style="edgeStyle=none;html=1;entryX=1;entryY=0.5;entryDx=0;entryDy=0;entryPerimeter=0;exitX=0.5;exitY=0;exitDx=0;exitDy=0;startArrow=classic;startFill=1;" edge="1" parent="1" source="10" target="4">
                    <mxGeometry relative="1" as="geometry"/>
                </mxCell>
                <mxCell id="12" value="training-data&lt;div&gt;json&lt;/div&gt;" style="shape=note;whiteSpace=wrap;html=1;backgroundOutline=1;darkOpacity=0.05;size=18;" vertex="1" parent="1">
                    <mxGeometry x="635" y="150" width="80" height="100" as="geometry"/>
                </mxCell>
                <mxCell id="13" value="generated&lt;div&gt;file&lt;/div&gt;" style="edgeStyle=none;html=1;entryX=0.5;entryY=1;entryDx=0;entryDy=0;entryPerimeter=0;" edge="1" parent="1" source="10" target="12">
                    <mxGeometry relative="1" as="geometry"/>
                </mxCell>
                <mxCell id="14" value="Tensorflow.js" style="rounded=0;whiteSpace=wrap;html=1;" vertex="1" parent="1">
                    <mxGeometry x="930" y="190" width="130" height="40" as="geometry"/>
                </mxCell>
                <mxCell id="16" value="read and&lt;div&gt;training&lt;/div&gt;" style="edgeStyle=none;html=1;entryX=0;entryY=0;entryDx=80;entryDy=59;entryPerimeter=0;startArrow=classic;startFill=1;" edge="1" parent="1" source="14" target="12">
                    <mxGeometry relative="1" as="geometry"/>
                </mxCell>
                <mxCell id="17" value="categorize transactions" style="edgeStyle=none;html=1;entryX=0.5;entryY=0;entryDx=0;entryDy=0;entryPerimeter=0;" edge="1" parent="1" source="14" target="3">
                    <mxGeometry relative="1" as="geometry">
                        <Array as="points">
                            <mxPoint x="995" y="60"/>
                            <mxPoint x="145" y="60"/>
                        </Array>
                    </mxGeometry>
                </mxCell>
                <mxCell id="18" value="1" style="ellipse;whiteSpace=wrap;html=1;aspect=fixed;fillColor=#d5e8d4;strokeColor=#82b366;" vertex="1" parent="1">
                    <mxGeometry x="130" y="480" width="30" height="30" as="geometry"/>
                </mxCell>
                <mxCell id="19" value="2" style="ellipse;whiteSpace=wrap;html=1;aspect=fixed;fillColor=#d5e8d4;strokeColor=#82b366;" vertex="1" parent="1">
                    <mxGeometry x="390" y="480" width="30" height="30" as="geometry"/>
                </mxCell>
                <mxCell id="20" value="3" style="ellipse;whiteSpace=wrap;html=1;aspect=fixed;fillColor=#d5e8d4;strokeColor=#82b366;" vertex="1" parent="1">
                    <mxGeometry x="660" y="480" width="30" height="30" as="geometry"/>
                </mxCell>
                <mxCell id="21" value="4" style="ellipse;whiteSpace=wrap;html=1;aspect=fixed;fillColor=#d5e8d4;strokeColor=#82b366;" vertex="1" parent="1">
                    <mxGeometry x="960" y="150" width="30" height="30" as="geometry"/>
                </mxCell>
            </root>
        </mxGraphModel>
    </diagram>
</mxfile>